<?xml version="1.0" encoding="utf-8"?>
<!-- Generator: Adobe Illustrator 17.0.0, SVG Export Plug-In . SVG Version: 6.00 Build 0)  -->
<!DOCTYPE svg PUBLIC "-//W3C//DTD SVG 1.1//EN" "http://www.w3.org/Graphics/SVG/1.1/DTD/svg11.dtd">
<svg version="1.1" id="Layer_1" xmlns="http://www.w3.org/2000/svg" xmlns:xlink="http://www.w3.org/1999/xlink" x="0px" y="0px"
	 width="40px" height="15px" viewBox="0 0 40 15" enable-background="new 0 0 40 15" xml:space="preserve">
<g>
	<path fill="#FFFFFF" d="M17.648,2.249c0,0.402-0.333,0.735-0.735,0.735H0.735C0.333,2.984,0,2.651,0,2.249V0.778
		c0-0.402,0.333-0.735,0.735-0.735h16.178c0.402,0,0.735,0.333,0.735,0.735V2.249z M17.648,8.132c0,0.402-0.333,0.735-0.735,0.735
		H0.735C0.333,8.867,0,8.534,0,8.132V6.661c0-0.402,0.333-0.735,0.735-0.735h16.178c0.402,0,0.735,0.333,0.735,0.735V8.132z
		 M17.648,14.015c0,0.402-0.333,0.735-0.735,0.735H0.735C0.333,14.75,0,14.417,0,14.015v-1.471c0-0.402,0.333-0.735,0.735-0.735
		h16.178c0.402,0,0.735,0.333,0.735,0.735V14.015z"/>
</g>
</svg>
