<?xml version="1.0" encoding="utf-8"?>
<!-- Generator: Adobe Illustrator 17.0.0, SVG Export Plug-In . SVG Version: 6.00 Build 0)  -->
<!DOCTYPE svg PUBLIC "-//W3C//DTD SVG 1.1//EN" "http://www.w3.org/Graphics/SVG/1.1/DTD/svg11.dtd">
<svg version="1.1" id="Layer_1" xmlns="http://www.w3.org/2000/svg" xmlns:xlink="http://www.w3.org/1999/xlink" x="0px" y="0px"
	 width="40px" height="15px" viewBox="0 0 40 15" enable-background="new 0 0 40 15" xml:space="preserve">
<g>
	<path fill="#FFFFFF" d="M14.513,12.861l-1.637,1.638c-0.217,0.217-0.518,0.337-0.818,0.337c-0.301,0-0.602-0.12-0.819-0.337
		l-3.54-3.54l-3.54,3.54c-0.217,0.217-0.518,0.337-0.819,0.337c-0.301,0-0.602-0.12-0.818-0.337l-1.637-1.638
		c-0.217-0.217-0.337-0.518-0.337-0.818s0.121-0.603,0.337-0.819l3.54-3.539l-3.54-3.54C0.668,3.928,0.548,3.627,0.548,3.326
		c0-0.301,0.121-0.602,0.337-0.818l1.637-1.637C2.739,0.654,3.04,0.533,3.341,0.533c0.301,0,0.602,0.121,0.819,0.337l3.54,3.54
		l3.54-3.54c0.217-0.217,0.518-0.337,0.819-0.337c0.301,0,0.602,0.121,0.818,0.337l1.637,1.637c0.217,0.217,0.337,0.518,0.337,0.818
		c0,0.301-0.121,0.602-0.337,0.819l-3.54,3.54l3.54,3.539c0.217,0.217,0.337,0.519,0.337,0.819S14.73,12.645,14.513,12.861z"/>
</g>
</svg>
